# xmcd
#
# Track frame offsets: 
#        150
#        23307
#        45730
#        66441
#        86518
#        97052
#        123700
#        143952
#        160914
#        182358
#        197580
#        223082
#        243626
#        265738
#        283878
#        301137
#
# Disc length: 4241 seconds
#
# Revision: 1
# Processed by: cddbd v1.5.2PL0 Copyright (c) Steve Scherf et al.
# Submitted via: ExactAudioCopy v1.0b3
#
DISCID=e8108f10
DTITLE=Various Artist - La Noche Cubana 15
DYEAR=2002
DGENRE=Salsa
TTITLE0=Mezcla Latina - Salsalegre
TTITLE1=John Dennis - Dicen
TTITLE2=Gabino Pampini - Que Manera de quererte
TTITLE3=Sonoras Carusseles - El pito
TTITLE4=Fruko y Orquesta - Bilongo
TTITLE5=Saulo y Harold - Periódico de ayer
TTITLE6=Sonoras Carruselels - Margoth
TTITLE7=Los Titanes - No quiero perderte
TTITLE8=Luis Alberto - Te voy a arrancar de mi
TTITLE9=Salsa Celtica - Yo mi voy i^ Maggie's pancakes
TTITLE10=Hansel Martinez - Ella
TTITLE11=Roberto Blandes - Por tu amor
TTITLE12=Rolando y su su dan den - Me has echado al olvido
TTITLE13=Carlos Oliva - Amor pirata
TTITLE14=Antonio Da Costa - Parranda
TTITLE15=Azuquinta - La salsa c'est pas complique' (Moi je viens da Pa
TTITLE15=nama)
EXTD=YEAR: 2002
EXTT0=
EXTT1=
EXTT2=
EXTT3=
EXTT4=
EXTT5=
EXTT6=
EXTT7=
EXTT8=
EXTT9=
EXTT10=
EXTT11=
EXTT12=
EXTT13=
EXTT14=
EXTT15=
PLAYORDER=
